<svg width="106" height="91" viewBox="0 0 106 91" fill="none" xmlns="http://www.w3.org/2000/svg">
<g id="Layer_1" clip-path="url(#clip0_75_156743)">
<path id="Vector" fill-rule="evenodd" clip-rule="evenodd" d="M95.6716 44.438C95.6716 32.5954 95.0799 21.8586 89.3449 13.8406C83.5643 5.82263 72.8226 0.845947 52.6136 0.845947C32.4045 0.845947 21.6628 5.82263 15.9278 13.8406C10.1928 21.8125 9.60109 32.5954 9.60109 44.438V46.3273C9.60109 48.9539 9.60109 51.7648 9.6466 54.6218C8.96386 54.9444 8.28113 55.2669 7.59839 55.6817C6.55152 56.3268 5.59569 57.1101 4.73089 57.9857C3.27438 59.4602 2.13649 61.2113 1.3172 63.1467C0.543432 65.036 0.133789 67.0635 0.133789 69.2293C0.133789 71.3951 0.543432 73.4226 1.3172 75.3119C2.09097 77.2473 3.27438 78.9984 4.73089 80.4729C6.1874 81.9475 7.917 83.0995 9.82867 83.929C11.6948 84.7123 13.6975 85.127 15.8368 85.127C16.474 85.127 17.1567 85.1271 17.7939 84.9888L18.7498 84.8506C26.3509 90.9332 56.2548 90.841 68.6807 90.841H71.093C96.2633 90.841 96.0357 72.5932 95.7171 51.3501C95.7171 49.3226 95.6716 47.2489 95.6716 44.3919V44.438ZM71.093 87.1546H68.6807C56.5734 87.1546 27.1247 87.2928 20.9345 81.9014L19.7511 80.8416L18.7953 81.072C18.3401 81.2102 17.8395 81.3024 17.3388 81.3484C16.8381 81.3945 16.3374 81.4406 15.8368 81.4406C14.1982 81.4406 12.6506 81.118 11.2397 80.519C9.78315 79.92 8.46319 78.9983 7.32529 77.8463C6.23291 76.7404 5.3226 75.358 4.68537 73.8834C4.09367 72.4549 3.77506 70.8882 3.77506 69.2293C3.77506 67.5704 4.09367 66.0037 4.68537 64.5752C5.27708 63.1006 6.1874 61.7643 7.32529 60.6123C8.00803 59.9211 8.73629 59.322 9.55557 58.8612C10.3293 58.4004 11.1941 57.9857 12.1045 57.6631L13.4244 57.2484V55.866C13.2879 52.5482 13.2879 49.3226 13.2879 46.3734V44.4841C13.2879 33.2866 13.7885 23.195 18.8863 16.0986C23.9841 9.04826 33.8155 4.67062 52.6136 4.67062C71.4116 4.67062 81.2886 9.04826 86.3408 16.0986C91.4386 23.195 91.9393 33.2866 91.9393 44.4841C91.9393 46.3273 91.9393 48.9078 92.0303 51.4883C92.3034 70.7039 92.531 87.2007 71.093 87.2007V87.1546Z" fill="black"/>
<path id="Vector_2" fill-rule="evenodd" clip-rule="evenodd" d="M52.6136 2.73511C13.6065 2.73511 11.4218 21.3977 11.4218 44.4379C11.4218 47.94 11.4218 51.8569 11.5128 55.8658C9.41908 56.5571 7.55293 57.7551 6.05091 59.2758C3.54754 61.8102 2 65.3584 2 69.2292C2 73.0999 3.54754 76.6021 6.05091 79.1826C8.55428 81.717 12.059 83.3298 15.8823 83.3298C17.0657 83.3298 18.2036 83.1916 19.296 82.9151L19.7512 83.3298C26.9427 89.5967 60.852 89.0438 71.0931 89.0438C97.0826 89.0438 93.8055 67.5242 93.8055 44.484C93.8055 21.4438 91.6662 2.73511 52.6136 2.73511Z" fill="#242424"/>
<path id="Vector_3" fill-rule="evenodd" clip-rule="evenodd" d="M87.8428 81.4404C84.6111 83.6523 80.1961 84.8965 74.1425 84.8965C70.3647 84.8965 63.2642 84.9886 55.5265 84.7582C42.9186 84.3435 28.5811 83.0993 24.2571 79.2286L23.802 78.8139C22.7551 79.0903 21.6172 79.2286 20.4793 79.2286C18.7497 79.2286 17.0656 78.906 15.5636 78.2609C13.834 77.5697 12.2409 76.4638 10.921 75.0813C8.46311 72.5469 6.96109 68.9987 6.96109 65.128C6.96109 61.9484 8.00795 58.9993 9.69204 56.6492C8.32656 57.3404 7.09764 58.262 6.00526 59.3218C3.50188 61.8563 1.95435 65.4045 1.95435 69.2752C1.95435 73.146 3.50188 76.6481 6.05077 79.2286C8.55414 81.763 12.0589 83.3297 15.8822 83.3297C17.0201 83.3297 18.158 83.1915 19.2049 82.915C19.2049 82.915 19.2504 82.915 19.2959 82.915L19.751 83.3297C26.4874 89.182 56.5734 89.0898 68.8626 89.0437C69.7274 89.0437 70.4557 89.0437 71.1384 89.0437C82.4264 89.0437 88.1614 84.9886 91.0744 78.5374C90.1641 79.6433 89.1172 80.6571 87.8883 81.4865L87.8428 81.4404Z" fill="#1A1A1A"/>
<path id="Vector_4" fill-rule="evenodd" clip-rule="evenodd" d="M11.4216 44.4379C11.4216 47.5714 11.4216 51.0274 11.4671 54.6217C12.423 53.7001 13.5609 52.9628 14.7443 52.3638C15.245 52.1334 15.7456 51.903 16.2463 51.7647C16.1098 47.7557 16.1553 43.7928 16.1553 40.3368C16.1553 33.8394 16.3373 27.7107 17.4297 22.2272C18.3856 17.3887 20.0696 13.0572 23.0282 9.46289C12.3319 16.8818 11.4671 29.7844 11.4671 44.4379H11.4216Z" fill="#1A1A1A"/>
<path id="Vector_5" fill-rule="evenodd" clip-rule="evenodd" d="M52.6135 2.73511C38.4125 2.73511 29.0818 5.22345 22.9826 9.46285C22.9826 9.46285 22.9371 9.50893 22.8916 9.55501C29.0362 7.52747 37.047 6.37546 47.4702 6.37546C73.5963 6.37546 84.5201 13.4719 89.0717 24.3008C89.4358 25.2224 89.7999 26.144 90.073 27.1117C91.9847 33.2864 92.2123 40.4289 92.2123 48.0783C92.2123 53.9766 92.4398 59.7827 92.3033 65.1741C92.4854 66.28 92.5764 67.386 92.5764 68.5841C92.5764 71.3489 92.0757 73.9294 91.2564 76.0491C91.0289 77.155 90.7558 78.1688 90.4371 79.1826C90.6192 78.9522 90.8468 78.7218 91.0288 78.4914C94.8522 70.0586 93.8053 57.4787 93.8053 44.4379C93.8053 21.3977 91.6206 2.73511 52.6135 2.73511Z" fill="#333333"/>
<path id="Vector_6" fill-rule="evenodd" clip-rule="evenodd" d="M73.0958 6.23719C63.7195 3.3802 54.844 5.40774 53.2509 10.7531C51.6578 16.0984 57.9846 22.734 67.3608 25.591C76.7371 28.448 85.6127 26.4204 87.2057 21.0751C88.7988 15.7298 82.4721 9.09417 73.0958 6.23719Z" fill="#333333"/>
<path id="Vector_7" fill-rule="evenodd" clip-rule="evenodd" d="M62.2629 4.48626C53.7059 0.0625339 42.2359 -0.0757076 29.0819 2.5048C28.2626 2.68912 27.5798 3.42641 27.5798 4.30193C27.5798 5.3157 28.3991 6.14515 29.4005 6.19123C43.0097 6.32947 50.7019 9.14038 55.0714 13.8406C59.3954 18.4025 60.6699 24.992 61.3526 32.5492C61.3526 33.563 62.1719 34.3925 63.1732 34.3925H76.0997H76.2818C77.2831 34.3003 78.0114 33.3787 77.9204 32.3649C76.6004 17.8035 70.9564 9.00214 62.2174 4.53234L62.2629 4.48626ZM64.9028 30.6599C64.0835 23.0106 62.536 16.2828 57.7568 11.2601C55.0259 8.35701 51.2481 6.05299 46.0593 4.53234C51.6122 4.67058 56.4824 5.68435 60.5788 7.80405C67.7703 11.4905 72.595 18.7251 74.097 30.6599H64.9028Z" fill="black"/>
<path id="Vector_8" fill-rule="evenodd" clip-rule="evenodd" d="M29.446 4.30183C57.8024 4.57831 61.7623 16.5131 63.2188 32.5031H76.1453C73.5964 4.76263 54.9804 -0.674862 29.446 4.30183Z" fill="#333333"/>
<path id="Vector_9" fill-rule="evenodd" clip-rule="evenodd" d="M65.3124 29.6462C64.129 16.4672 61.216 6.05302 44.2841 2.64307C39.687 2.64307 34.6802 3.24211 29.4004 4.30196C57.7568 4.57844 61.7166 16.5133 63.1732 32.5032H76.0997C76.0086 31.5355 75.9176 30.5678 75.781 29.6923H65.3124V29.6462Z" fill="#1A1A1A"/>
<path id="Vector_10" fill-rule="evenodd" clip-rule="evenodd" d="M7.87144 32.918V49.6452L42.9187 60.6123V43.8851L10.1928 33.6553L7.82593 32.918H7.87144ZM11.5582 37.9407L39.2774 46.6039V55.5895L11.5582 46.9264V37.9407Z" fill="black"/>
<path id="Vector_11" fill-rule="evenodd" clip-rule="evenodd" d="M9.73755 48.3088L41.098 58.124V45.2675L9.73755 35.4524V48.3088Z" fill="#333333"/>
<path id="Vector_12" fill-rule="evenodd" clip-rule="evenodd" d="M9.73755 48.3088L41.098 58.124V55.4513L9.73755 45.5901V48.3088Z" fill="#1A1A1A"/>
<path id="Vector_13" fill-rule="evenodd" clip-rule="evenodd" d="M9.73755 37.0652L41.098 46.8803V45.2675L9.73755 35.4524V37.0652Z" fill="#4D4D4D"/>
<path id="Vector_14" fill-rule="evenodd" clip-rule="evenodd" d="M18.9318 85.68L17.7939 87.8919L34.0431 90.9793L51.1115 58.0779L34.8624 54.9905L18.9318 85.634V85.68ZM45.5586 60.7966L32.0404 86.786L23.3014 85.1271L36.8196 59.1377L45.5586 60.7966Z" fill="black"/>
<path id="Vector_15" fill-rule="evenodd" clip-rule="evenodd" d="M20.5703 86.5094L33.0872 88.8595L48.3805 59.4141L35.8636 57.064L20.5703 86.5094Z" fill="#333333"/>
<path id="Vector_16" fill-rule="evenodd" clip-rule="evenodd" d="M30.4473 88.3527L33.0872 88.8596L48.3805 59.4142L45.7406 58.9534L30.4473 88.3527Z" fill="#1A1A1A"/>
<path id="Vector_17" fill-rule="evenodd" clip-rule="evenodd" d="M20.5703 86.5094L22.1634 86.7858L37.4567 57.3865L35.8636 57.064L20.5703 86.5094Z" fill="#4D4D4D"/>
<path id="Vector_18" fill-rule="evenodd" clip-rule="evenodd" d="M89.8911 42.6869C87.6608 42.6869 86.5229 42.6869 86.1132 42.5026C85.9767 42.4565 86.2498 42.3643 86.2043 41.9035C85.8401 36.1896 83.3368 30.9364 79.5134 27.1117C75.7356 23.3331 70.6834 20.983 65.1304 20.8909C59.5775 20.983 54.4797 23.3331 50.6564 27.1117C46.8331 30.9364 44.2842 36.1435 43.92 41.8575V42.0879V42.3183C43.92 42.5487 43.4649 42.0879 42.8277 42.2261C40.9615 42.5947 37.9119 42.5947 35.1355 42.5947H34.9534C31.7673 42.5947 29.8101 43.7468 28.6722 45.3135C27.5343 46.8341 27.2612 48.7234 27.2612 50.2902V73.1C27.2612 75.4501 27.8074 77.1551 28.8543 78.3532C29.9922 79.5973 31.5397 80.1503 33.5879 80.1503H35.9548C39.9602 80.0581 41.7808 80.0121 47.6523 80.0121C51.6577 80.0121 55.5721 78.5375 59.532 77.0629C63.2188 75.6805 66.9511 74.2981 70.4103 74.2981C72.595 74.2981 74.9618 75.6344 77.3287 76.9707C80.1507 78.5375 82.9271 80.1503 86.1132 80.1042H91.9393C93.3503 80.1042 94.5337 79.5513 95.353 78.5375C96.1267 77.6159 96.5364 76.3717 96.5364 74.8971V49.9676C96.5364 46.742 96.5364 42.5487 89.8 42.5487L89.8911 42.6869ZM92.9406 75.0354C92.9406 75.5883 92.8496 76.0491 92.622 76.2795C92.4855 76.4178 92.3034 76.5099 91.9848 76.5099H86.1588C83.9285 76.5099 81.5617 75.1736 79.1493 73.8373C76.3728 72.2705 73.5964 70.7038 70.4558 70.7038C66.3138 70.7038 62.3084 72.1784 58.303 73.653C54.6618 75.0354 51.066 76.3717 47.6979 76.3717C42.8732 76.3717 40.6884 76.3717 35.9548 76.4639H33.6335C32.6776 76.4639 31.9949 76.3256 31.6308 75.9109C31.2211 75.4501 30.9935 74.5285 30.9935 73.1461V50.3363C30.9935 49.3686 31.1301 48.3087 31.6763 47.5714C32.1769 46.8802 33.1783 46.3733 34.9989 46.3733H35.181C38.094 46.3733 41.2801 46.3733 43.6014 45.9125C46.2413 45.3596 47.8799 44.2076 47.6068 41.9496C47.9709 37.2494 50.0647 32.9179 53.2053 29.7844C56.3459 26.6509 60.5788 24.6695 65.1304 24.6234C69.682 24.6695 73.8695 26.6509 76.9645 29.7844C80.1507 32.9639 82.2444 37.3416 82.563 42.1339C82.7451 44.1154 83.0182 45.1753 84.6567 45.8665C85.7491 46.3273 87.2056 46.3733 89.8911 46.3733C92.9406 46.3733 92.9406 48.447 92.9406 50.0598V74.9893V75.0354Z" fill="black"/>
<path id="Vector_19" fill-rule="evenodd" clip-rule="evenodd" d="M89.891 44.5302C84.9753 44.5302 84.6567 44.438 84.4291 41.9958C83.7464 31.5355 75.3714 22.8724 65.1759 22.7341C54.9803 22.8724 46.4689 31.5355 45.7861 41.9958C46.2868 44.5302 40.2332 44.5302 35.0444 44.5302C29.8556 44.5302 29.1729 47.8019 29.1729 50.3363V73.1461C29.1729 76.8786 30.6749 78.3532 33.6789 78.3532C39.8236 78.2611 41.5076 78.215 47.7433 78.215C55.1624 78.215 62.9911 72.4549 70.5012 72.501C75.8266 72.5471 80.8333 78.3532 86.1587 78.3532C88.1159 78.3532 90.0275 78.3532 91.9847 78.3532C93.7143 78.3532 94.7612 77.063 94.7612 75.0354V50.3824C94.7612 47.9401 94.9888 44.5763 89.891 44.5763V44.5302Z" fill="#1A1A1A"/>
<path id="Vector_20" fill-rule="evenodd" clip-rule="evenodd" d="M94.5793 42.6869C92.3945 42.6869 91.2111 42.6869 90.8015 42.5026C90.6649 42.4565 90.938 42.3643 90.8925 41.9035C90.5284 36.1896 88.025 30.9364 84.2017 27.1117C80.4239 23.3331 75.3716 20.983 69.8187 20.8909C64.2657 20.983 59.1679 23.3331 55.3446 27.1117C51.5213 30.9364 48.9724 36.1435 48.6083 41.8575V42.0879V42.3183C48.6083 42.5487 48.1531 42.0879 47.5159 42.2261C45.6497 42.5947 42.6002 42.5947 39.8237 42.5947H39.6416C36.4555 42.5947 34.4984 43.7468 33.3605 45.3135C32.2226 46.8341 31.9495 48.7234 31.9495 50.2902V73.1C31.9495 75.4501 32.4957 77.1551 33.5425 78.3532C34.6804 79.5973 36.228 80.1503 38.2762 80.1503H40.643C44.6484 80.0581 46.469 80.0121 52.3406 80.0121C56.346 80.0121 60.2603 78.5375 64.2202 77.0629C67.907 75.6805 71.6393 74.2981 75.0985 74.2981C77.2833 74.2981 79.6501 75.6344 82.0169 76.9707C84.8389 78.5375 87.6154 80.1503 90.8015 80.1042H96.6275C98.0385 80.1042 99.2219 79.5513 100.041 78.5375C100.815 77.6159 101.225 76.3717 101.225 74.8971V49.9676C101.225 46.742 101.225 42.5487 94.4883 42.5487L94.5793 42.6869ZM97.6289 75.0354C97.6289 75.6344 97.5378 76.0491 97.3102 76.2795C97.1737 76.4178 96.9916 76.5099 96.673 76.5099H90.847C88.6167 76.5099 86.2499 75.1736 83.8375 73.8373C81.0611 72.2705 78.2846 70.7038 75.144 70.7038C71.0021 70.7038 66.9967 72.1784 62.9913 73.653C59.35 75.0354 55.7543 76.3717 52.3861 76.3717C47.5614 76.3717 45.3766 76.3717 40.643 76.4639H38.3217C37.3659 76.4639 36.6831 76.3256 36.319 75.9109C35.9093 75.4501 35.6818 74.5285 35.6818 73.1461V50.3363C35.6818 49.3686 35.8183 48.3087 36.3645 47.5714C36.8652 46.8802 37.8665 46.3733 39.6872 46.3733H39.8692C42.7822 46.3733 45.9683 46.3733 48.2897 45.9125C50.9296 45.3596 52.5681 44.2076 52.2951 41.9496C52.6592 37.2494 54.7529 32.9179 57.8935 29.7844C61.0341 26.6509 65.2671 24.6695 69.8187 24.6234C74.3702 24.6695 78.5577 26.6509 81.6528 29.7844C84.8389 32.9639 86.9326 37.3416 87.2512 42.1339C87.4333 44.1154 87.7064 45.1753 89.2994 45.8665C90.3463 46.3273 91.8483 46.3733 94.5338 46.3733C97.5833 46.3733 97.5833 48.447 97.5833 50.0598V74.9893L97.6289 75.0354Z" fill="black"/>
<path id="Vector_21" fill-rule="evenodd" clip-rule="evenodd" d="M94.5791 44.5302C89.6634 44.5302 89.3448 44.438 89.0717 41.9958C88.3889 31.5355 80.014 22.8724 69.8185 22.7341C59.6229 22.8724 51.1114 31.5355 50.4287 41.9958C50.9294 44.5302 44.8758 44.5302 39.687 44.5302C34.4982 44.5302 33.8154 47.8019 33.8154 50.3363V73.1461C33.8154 76.8786 35.3175 78.3532 38.3215 78.3532C44.4661 78.2611 46.1502 78.215 52.3859 78.215C59.805 78.215 67.6337 72.4549 75.1438 72.501C80.4692 72.5471 85.4759 78.3532 90.8013 78.3532C92.7584 78.3532 94.6701 78.3532 96.6273 78.3532C98.3569 78.3532 99.4037 77.063 99.4037 75.0354V50.3824C99.4037 47.9401 99.6313 44.5763 94.5336 44.5763L94.5791 44.5302Z" fill="#3E3E3E"/>
<path id="Vector_22" fill-rule="evenodd" clip-rule="evenodd" d="M94.5791 44.5302C89.6634 44.5302 89.3448 44.4381 89.0717 41.9958C88.4345 31.9042 80.6058 23.5176 70.9109 22.7803L74.3246 72.5011C74.5977 72.5011 74.8708 72.5011 75.1439 72.5011C80.4692 72.5471 85.476 78.3533 90.8013 78.3533C92.7585 78.3533 94.6702 78.3533 96.6274 78.3533C98.357 78.3533 99.4038 77.063 99.4038 75.0355V50.3824C99.4038 47.9402 99.6314 44.5763 94.5336 44.5763L94.5791 44.5302Z" fill="#4D4D4D"/>
<path id="Vector_23" fill-rule="evenodd" clip-rule="evenodd" d="M51.9763 45.636C47.7888 45.636 44.011 47.341 41.28 50.1519C38.5491 52.9167 36.865 56.7414 36.865 60.9808C36.865 65.2202 38.5491 69.0448 41.28 71.8097C44.011 74.5745 47.7888 76.2795 51.9763 76.2795C56.1637 76.2795 59.9415 74.5745 62.6725 71.8097C65.4034 69.0448 67.0875 65.2202 67.0875 60.9808C67.0875 56.7414 65.4034 52.9167 62.6725 50.1519C59.9415 47.387 56.1637 45.6821 51.9763 45.6821V45.636ZM60.0781 69.137C58.0299 71.2106 55.1624 72.547 51.9763 72.547C48.7901 72.547 45.9682 71.2567 43.8744 69.137C41.8262 67.0634 40.5063 64.1603 40.5063 60.9347C40.5063 57.7091 41.7807 54.806 43.8744 52.7324C45.9226 50.6588 48.7901 49.3224 51.9763 49.3224C55.1624 49.3224 57.9844 50.6127 60.0781 52.7324C62.1263 54.806 63.4463 57.7091 63.4463 60.9347C63.4463 64.1603 62.1718 67.0173 60.0781 69.137Z" fill="black"/>
<path id="Vector_24" fill-rule="evenodd" clip-rule="evenodd" d="M51.9764 47.5254C44.6484 47.5254 38.6858 53.5619 38.6858 60.9809C38.6858 68.3998 44.6484 74.4364 51.9764 74.4364C59.3045 74.4364 65.267 68.3998 65.267 60.9809C65.267 53.5619 59.3045 47.5254 51.9764 47.5254Z" fill="#1A1A1A"/>
<path id="Vector_25" fill-rule="evenodd" clip-rule="evenodd" d="M52.6591 47.5254H52.3404H51.9763H51.6122H51.2936C44.5572 47.894 39.1408 53.2854 38.7312 60.1054C39.1864 66.2801 44.9214 71.1186 51.9763 71.1186C59.0313 71.1186 64.7663 66.2341 65.2214 60.1054C64.7663 53.3315 59.3954 47.894 52.6591 47.5715V47.5254Z" fill="#333333"/>
<path id="Vector_26" fill-rule="evenodd" clip-rule="evenodd" d="M55.208 49.7832C54.2521 49.7832 53.2963 49.9214 52.4315 50.1518C51.5212 50.3822 50.6564 50.7509 49.8826 51.1656C48.244 51.9029 46.833 53.101 45.7862 54.7599C44.8759 56.2345 44.2841 58.1238 44.1931 60.3817V61.4876C44.2841 63.7456 44.8759 65.5888 45.7862 67.1094C46.833 68.7683 48.244 69.9664 49.8826 70.7037C50.6564 71.1645 51.5212 71.4871 52.4315 71.7175C53.3418 71.9479 54.2521 72.0861 55.208 72.0861C58.2575 72.0861 60.9885 70.842 62.9912 68.8144C64.9939 66.7869 66.2228 63.976 66.2228 60.9347C66.2228 57.8934 64.9939 55.0364 62.9912 53.0549C60.9885 51.0274 58.212 49.7832 55.208 49.7832ZM61.7167 67.5242C60.0781 69.1831 57.7568 70.2429 55.208 70.2429C54.3887 70.2429 53.6149 70.1508 52.8866 69.9664C52.1129 69.7821 51.3846 69.4595 50.7019 69.0909H50.6109C49.2909 68.4919 48.153 67.4781 47.3337 66.1418C46.5599 64.8976 46.1048 63.3308 46.0137 61.4416V60.4739C46.1048 58.5846 46.5599 57.0178 47.3337 55.7737C48.153 54.4373 49.3364 53.4696 50.6109 52.8706H50.7019C51.3846 52.4559 52.1129 52.1333 52.8866 51.949C53.6149 51.7647 54.3887 51.6725 55.208 51.6725C57.7568 51.6725 60.0326 52.7324 61.7167 54.3912C63.4008 56.0962 64.4022 58.4002 64.4022 60.9807C64.4022 63.5613 63.3553 65.8653 61.7167 67.5702V67.5242Z" fill="black"/>
<path id="Vector_27" fill-rule="evenodd" clip-rule="evenodd" d="M55.208 50.7048C53.4329 50.7048 51.7488 51.1656 50.2468 51.9951C47.4703 53.2393 45.2401 56.0502 45.1035 60.3817V60.6582V60.9347V61.2112V61.4877C45.2856 65.8653 47.4703 68.6301 50.2468 69.8743C51.7033 70.7037 53.3874 71.1645 55.208 71.1645C60.8065 71.1645 65.3125 66.6026 65.3125 60.9347C65.3125 55.2668 60.8065 50.7048 55.208 50.7048Z" fill="#1A1A1A"/>
<path id="Vector_28" fill-rule="evenodd" clip-rule="evenodd" d="M55.208 50.7048C49.6551 50.7048 45.1035 55.3129 45.1035 60.9347C45.1035 66.5565 49.6551 71.1645 55.208 71.1645C60.761 71.1645 65.3125 66.5565 65.3125 60.9347C65.3125 55.3129 60.761 50.7048 55.208 50.7048Z" fill="#1A1A1A"/>
<path id="Vector_29" fill-rule="evenodd" clip-rule="evenodd" d="M45.1035 60.9808C45.1035 73.8834 62.5361 73.8834 62.5361 60.9808C62.5361 48.0783 45.1035 48.0783 45.1035 60.9808Z" fill="#BA0000"/>
<path id="Vector_30" fill-rule="evenodd" clip-rule="evenodd" d="M46.2869 60.9808C46.2869 69.9204 58.3486 69.9204 58.3486 60.9808C58.3486 52.0412 46.2869 52.0412 46.2869 60.9808Z" fill="#9C0000"/>
<path id="Vector_31" fill-rule="evenodd" clip-rule="evenodd" d="M50.2468 52.0413C49.2454 52.5942 48.3806 53.3315 47.6523 54.161C52.7956 51.3961 60.4423 54.2992 60.4423 62.8241C60.4423 65.5889 59.6685 67.7547 58.3941 69.3214C60.7609 67.8008 62.536 65.036 62.536 60.9348C62.536 52.6864 55.4356 49.6912 50.2923 51.9952L50.2468 52.0413Z" fill="#F60000"/>
<path id="Vector_32" fill-rule="evenodd" clip-rule="evenodd" d="M56.801 52.9629C54.2976 51.7187 51.6122 52.0874 50.7929 53.7463C49.9736 55.4052 51.3846 57.8014 53.888 59.0455C56.3913 60.2897 59.0768 59.9211 59.8961 58.2622C60.7153 56.6033 59.3044 54.2071 56.801 52.9629Z" fill="#F60000"/>
<path id="Vector_33" fill-rule="evenodd" clip-rule="evenodd" d="M57.3018 52.548C55.4356 51.6264 53.4329 51.9029 52.8412 53.1471C52.2495 54.3913 53.2509 56.1423 55.117 57.0639C56.9832 57.9855 58.9859 57.709 59.5776 56.4649C60.1693 55.2207 59.1679 53.4696 57.3018 52.548Z" fill="white"/>
<path id="Vector_34" fill-rule="evenodd" clip-rule="evenodd" d="M51.8852 65.8653C50.4287 65.1741 48.8812 65.3584 48.426 66.3261C47.9709 67.2938 48.7446 68.6762 50.2012 69.3674C51.6577 70.0586 53.2052 69.8743 53.6604 68.9066C54.1155 67.9389 53.3417 66.5565 51.8852 65.8653Z" fill="white"/>
<path id="Vector_35" fill-rule="evenodd" clip-rule="evenodd" d="M90.7558 45.636C86.5683 45.636 82.7905 47.341 80.0596 50.1058C77.3286 52.8706 75.6445 56.6953 75.6445 60.9347C75.6445 65.1741 77.3286 68.9988 80.0596 71.7636C82.7905 74.5284 86.5683 76.2334 90.7558 76.2334C94.9433 76.2334 98.7211 74.5284 101.452 71.7636C104.183 68.9988 105.867 65.1741 105.867 60.9347C105.867 56.6953 104.183 52.8706 101.452 50.1058C98.7211 47.341 94.9433 45.636 90.7558 45.636ZM98.8576 69.137C96.8094 71.2106 93.9419 72.547 90.7558 72.547C87.5697 72.547 84.7477 71.2567 82.654 69.137C80.6058 67.0634 79.2858 64.1603 79.2858 60.9347C79.2858 57.7091 80.5602 54.8521 82.654 52.7324C84.7022 50.6588 87.5697 49.3224 90.7558 49.3224C93.9419 49.3224 96.7639 50.6127 98.8576 52.7324C100.906 54.806 102.226 57.7091 102.226 60.9347C102.226 64.1603 100.951 67.0173 98.8576 69.137Z" fill="black"/>
<path id="Vector_36" fill-rule="evenodd" clip-rule="evenodd" d="M90.756 47.5254C83.4279 47.5254 77.4653 53.5619 77.4653 60.9809C77.4653 68.3998 83.4279 74.4364 90.756 74.4364C98.084 74.4364 104.047 68.3998 104.047 60.9809C104.047 53.5619 98.084 47.5254 90.756 47.5254Z" fill="#1A1A1A"/>
<path id="Vector_37" fill-rule="evenodd" clip-rule="evenodd" d="M91.4386 47.5254H91.12H90.7559H90.3917H90.0731C83.3368 47.894 77.9204 53.2854 77.5107 60.1054C77.9659 66.2801 83.7009 71.1186 90.7559 71.1186C97.8108 71.1186 103.546 66.2341 104.001 60.1054C103.546 53.3315 98.1749 47.894 91.4386 47.5715V47.5254Z" fill="#333333"/>
<path id="Vector_38" fill-rule="evenodd" clip-rule="evenodd" d="M93.9875 49.7832C93.0317 49.7832 92.0758 49.9214 91.211 50.1518C90.3007 50.3822 89.4359 50.7509 88.6621 51.1656C87.0691 51.9029 85.6126 53.101 84.5657 54.7599C83.6554 56.2345 83.0637 58.1238 82.9727 60.3817V61.4876C83.0637 63.6995 83.6554 65.5888 84.5657 67.1094C85.6126 68.7683 87.0236 69.9664 88.6621 70.7037C89.4359 71.1645 90.3007 71.4871 91.211 71.7175C92.1213 71.9479 93.0317 72.0861 93.9875 72.0861C97.0371 72.0861 99.8135 70.842 101.771 68.8144C103.773 66.7869 105.002 63.976 105.002 60.9347C105.002 57.8934 103.773 55.0364 101.771 53.0549C99.768 51.0274 96.9915 49.7832 93.9875 49.7832ZM100.496 67.5242C98.8122 69.2291 96.5364 70.2429 93.9875 70.2429C93.1682 70.2429 92.3944 70.1508 91.6662 69.9664C90.8924 69.7821 90.1642 69.4595 89.4814 69.0909H89.3904C88.0704 68.4919 86.9325 67.4781 86.0677 66.1418C85.294 64.8976 84.8388 63.3308 84.7478 61.4416V60.4739C84.8388 58.5846 85.294 57.0178 86.0677 55.7737C86.887 54.4373 88.0704 53.4696 89.3449 52.8706H89.4359C90.1186 52.4559 90.8469 52.1333 91.6207 51.949C92.3489 51.7647 93.1227 51.6725 93.942 51.6725C96.4909 51.6725 98.7667 52.7324 100.451 54.3912C102.135 56.0962 103.136 58.4002 103.136 60.9807C103.136 63.5613 102.089 65.8653 100.451 67.5702L100.496 67.5242Z" fill="black"/>
<path id="Vector_39" fill-rule="evenodd" clip-rule="evenodd" d="M93.9876 50.7048C92.2125 50.7048 90.5284 51.1656 89.0264 51.9951C86.2499 53.2393 84.0196 56.0502 83.8831 60.3817V60.6582V60.9347V61.2112V61.4877C84.0651 65.8653 86.2499 68.6301 89.0264 69.8743C90.4829 70.7037 92.1669 71.1645 93.9876 71.1645C99.586 71.1645 104.092 66.6026 104.092 60.9347C104.092 55.2668 99.586 50.7048 93.9876 50.7048Z" fill="#1A1A1A"/>
<path id="Vector_40" fill-rule="evenodd" clip-rule="evenodd" d="M93.9876 50.7048C88.4346 50.7048 83.8831 55.3129 83.8831 60.9347C83.8831 66.5565 88.4346 71.1645 93.9876 71.1645C99.5405 71.1645 104.092 66.5565 104.092 60.9347C104.092 55.3129 99.5405 50.7048 93.9876 50.7048Z" fill="#1A1A1A"/>
<path id="Vector_41" fill-rule="evenodd" clip-rule="evenodd" d="M83.8831 60.9808C83.8831 73.8834 101.316 73.8834 101.316 60.9808C101.316 48.0783 83.8831 48.0783 83.8831 60.9808Z" fill="#BA0000"/>
<path id="Vector_42" fill-rule="evenodd" clip-rule="evenodd" d="M85.0664 60.9808C85.0664 69.9204 97.1281 69.9204 97.1281 60.9808C97.1281 52.0412 85.0664 52.0412 85.0664 60.9808Z" fill="#9C0000"/>
<path id="Vector_43" fill-rule="evenodd" clip-rule="evenodd" d="M89.0263 52.0413C88.0249 52.5942 87.1601 53.3315 86.4319 54.161C91.5752 51.3961 99.2218 54.2992 99.2218 62.8241C99.2218 65.5889 98.4481 67.7547 97.1736 69.3214C99.586 67.8008 101.316 65.036 101.316 60.9348C101.316 52.6864 94.2151 49.6912 89.0718 51.9952L89.0263 52.0413Z" fill="#F60000"/>
<path id="Vector_44" fill-rule="evenodd" clip-rule="evenodd" d="M95.5805 52.9629C93.0772 51.7187 90.3917 52.0874 89.5724 53.7463C88.7531 55.4052 90.1641 57.8014 92.6675 59.0455C95.1709 60.2897 97.8563 59.9211 98.6756 58.2622C99.4949 56.6033 98.0839 54.2071 95.5805 52.9629Z" fill="#F60000"/>
<path id="Vector_45" fill-rule="evenodd" clip-rule="evenodd" d="M96.1267 52.548C94.2606 51.6264 92.2579 51.9029 91.6662 53.1471C91.0745 54.3913 92.0758 56.1423 93.942 57.0639C95.8081 57.9855 97.8108 57.709 98.4025 56.4649C98.9942 55.2207 97.9929 53.4696 96.1267 52.548Z" fill="white"/>
<path id="Vector_46" fill-rule="evenodd" clip-rule="evenodd" d="M90.6648 65.8653C89.2083 65.1741 87.6607 65.3584 87.2056 66.3261C86.7504 67.2938 87.5242 68.6762 88.9807 69.3674C90.4372 70.0586 91.9847 69.8743 92.4399 68.9066C92.8951 67.9389 92.1213 66.5565 90.6648 65.8653Z" fill="white"/>
<path id="Vector_47" fill-rule="evenodd" clip-rule="evenodd" d="M71.4116 23.9321C67.2241 23.9321 63.4463 25.6371 60.7153 28.4019C57.9844 31.1668 56.3003 34.9914 56.3003 39.2308C56.3003 43.4702 57.9844 47.2949 60.7153 50.0597C63.4463 52.8246 67.2241 54.5295 71.4116 54.5295C75.599 54.5295 79.3768 52.8246 82.1078 50.0597C84.8387 47.2949 86.5228 43.4702 86.5228 39.2308C86.5228 34.9914 84.8387 31.1668 82.1078 28.4019C79.3768 25.6371 75.599 23.9321 71.4116 23.9321ZM79.5134 47.4332C77.4652 49.5068 74.5977 50.8431 71.4116 50.8431C68.2254 50.8431 65.4035 49.5529 63.3097 47.4332C61.216 45.3135 59.9416 42.4565 59.9416 39.2308C59.9416 36.0052 61.216 33.1482 63.3097 31.0285C65.4035 28.9088 68.2254 27.6186 71.4116 27.6186C74.5977 27.6186 77.4197 28.9088 79.5134 31.0285C81.6071 33.1482 82.8816 36.0052 82.8816 39.2308C82.8816 42.4565 81.6071 45.3135 79.5134 47.4332Z" fill="black"/>
<path id="Vector_48" fill-rule="evenodd" clip-rule="evenodd" d="M71.4117 25.8215C64.0837 25.8215 58.1211 31.8581 58.1211 39.277C58.1211 46.696 64.0837 52.7325 71.4117 52.7325C78.7398 52.7325 84.7024 46.696 84.7024 39.277C84.7024 31.8581 78.7398 25.8215 71.4117 25.8215Z" fill="#1A1A1A"/>
<path id="Vector_49" fill-rule="evenodd" clip-rule="evenodd" d="M72.0944 25.8215H71.7757H71.4116H71.0475H70.7289C63.9925 26.1902 58.5761 31.5816 58.1665 38.4015C58.6217 44.5763 64.3567 49.4147 71.4116 49.4147C78.4666 49.4147 84.2016 44.5302 84.6567 38.4015C84.2016 31.6277 78.8307 26.1902 72.0944 25.8676V25.8215Z" fill="#333333"/>
<path id="Vector_50" fill-rule="evenodd" clip-rule="evenodd" d="M74.6433 28.0793C73.6874 28.0793 72.7316 28.2176 71.8668 28.448C70.9565 28.6784 70.0917 29.047 69.3179 29.4618C67.7248 30.199 66.2683 31.3971 65.2215 33.056C64.3112 34.5306 63.7194 36.4199 63.6284 38.6778V39.7838C63.7194 42.0417 64.3112 43.8849 65.2215 45.4056C66.2683 47.0645 67.6793 48.2626 69.3179 48.9999C70.0917 49.4607 70.9565 49.7832 71.8668 50.0136C72.7771 50.244 73.6874 50.3823 74.6433 50.3823C77.6928 50.3823 80.4693 49.1381 82.4265 47.1106C84.4292 45.083 85.6581 42.2721 85.6581 39.2308C85.6581 36.1895 84.4292 33.3786 82.4265 31.3511C80.4238 29.3235 77.6473 28.0793 74.6433 28.0793ZM81.152 45.8203C79.4679 47.5253 77.1921 48.5391 74.6433 48.5391C73.824 48.5391 73.0502 48.4469 72.3219 48.2626C71.5482 48.0783 70.8199 47.7557 70.1372 47.387H70.0462C68.7262 46.7419 67.5883 45.7742 66.7235 44.4379C65.9497 43.1937 65.4946 41.627 65.4035 39.7377V38.77C65.4946 36.8807 65.9497 35.314 66.7235 34.0698C67.5428 32.7335 68.7262 31.7658 70.0006 31.1667H70.0917C70.7744 30.752 71.5027 30.4294 72.2764 30.2451C73.0047 30.0608 73.7785 29.9686 74.5977 29.9686C77.1466 29.9686 79.4224 31.0285 81.1065 32.6874C82.7906 34.3463 83.7919 36.6964 83.7919 39.2769C83.7919 41.8574 82.7451 44.1614 81.1065 45.8664L81.152 45.8203Z" fill="black"/>
<path id="Vector_51" fill-rule="evenodd" clip-rule="evenodd" d="M74.6433 29.0471C72.8682 29.0471 71.1841 29.5079 69.6821 30.3374C66.9056 31.5815 64.6754 34.3924 64.5388 38.724V39.0005V39.277V39.5535V39.8299C64.7209 44.2076 66.9056 46.9724 69.6821 48.2166C71.1386 49.046 72.8227 49.5068 74.6433 49.5068C80.2418 49.5068 84.7479 44.9449 84.7479 39.277C84.7479 33.6091 80.2418 29.0471 74.6433 29.0471Z" fill="#1A1A1A"/>
<path id="Vector_52" fill-rule="evenodd" clip-rule="evenodd" d="M74.6433 29.0471C69.0904 29.0471 64.5388 33.6552 64.5388 39.277C64.5388 44.8988 69.0904 49.5068 74.6433 49.5068C80.1963 49.5068 84.7479 44.8988 84.7479 39.277C84.7479 33.6552 80.1963 29.0471 74.6433 29.0471Z" fill="#1A1A1A"/>
<path id="Vector_53" fill-rule="evenodd" clip-rule="evenodd" d="M64.5388 39.277C64.5388 52.1795 81.9714 52.1795 81.9714 39.277C81.9714 26.3745 64.5388 26.3745 64.5388 39.277Z" fill="#BA0000"/>
<path id="Vector_54" fill-rule="evenodd" clip-rule="evenodd" d="M65.6765 39.277C65.6765 48.2166 77.7382 48.2166 77.7382 39.277C77.7382 30.3374 65.6765 30.3374 65.6765 39.277Z" fill="#9C0000"/>
<path id="Vector_55" fill-rule="evenodd" clip-rule="evenodd" d="M69.682 30.3374C68.6807 30.8904 67.8159 31.6277 67.0876 32.4571C72.2309 29.6923 79.8776 32.5954 79.8776 41.1202C79.8776 43.8851 79.1038 46.0508 77.8294 47.6176C80.2417 46.0969 81.9713 43.3321 81.9713 39.2309C81.9713 30.9825 74.8709 27.9873 69.7276 30.2913L69.682 30.3374Z" fill="#F60000"/>
<path id="Vector_56" fill-rule="evenodd" clip-rule="evenodd" d="M76.2363 31.259C73.7329 30.0149 71.0475 30.3835 70.2282 32.0424C69.4089 33.7013 70.8199 36.0975 73.3233 37.3417C75.8266 38.5858 78.5121 38.2172 79.3314 36.5583C80.1506 34.8994 78.7397 32.5032 76.2363 31.259Z" fill="#F60000"/>
<path id="Vector_57" fill-rule="evenodd" clip-rule="evenodd" d="M76.7371 30.8442C74.8709 29.9226 72.8682 30.1991 72.2765 31.4432C71.6848 32.6874 72.6862 34.4385 74.5523 35.3601C76.4185 36.2817 78.4211 36.0052 79.0129 34.761C79.6046 33.5168 78.6032 31.7658 76.7371 30.8442Z" fill="white"/>
<path id="Vector_58" fill-rule="evenodd" clip-rule="evenodd" d="M71.3205 44.2075C69.864 43.4702 68.3165 43.7006 67.8613 44.6683C67.4062 45.636 68.1799 47.0184 69.6365 47.7096C71.093 48.4469 72.6405 48.2165 73.0957 47.2488C73.5508 46.2811 72.7771 44.8987 71.3205 44.2075Z" fill="white"/>
<path id="Vector_59" fill-rule="evenodd" clip-rule="evenodd" d="M37.3203 46.3274C36.41 46.3274 35.6362 47.2951 35.6362 48.4471C35.6362 49.5991 36.41 50.5668 37.3203 50.5668C38.2306 50.5668 39.0044 49.5991 39.0044 48.4471C39.0044 47.2951 38.2306 46.3274 37.3203 46.3274Z" fill="black"/>
<path id="Vector_60" fill-rule="evenodd" clip-rule="evenodd" d="M37.3203 72.5471C36.41 72.5471 35.6362 73.5148 35.6362 74.6668C35.6362 75.8188 36.41 76.7865 37.3203 76.7865C38.2306 76.7865 39.0044 75.8649 39.0044 74.6668C39.0044 73.4687 38.2306 72.5471 37.3203 72.5471Z" fill="black"/>
</g>
<defs>
<clipPath id="clip0_75_156743">
<rect width="105.733" height="90.1333" fill="white" transform="translate(0.133789 0.799805)"/>
</clipPath>
</defs>
</svg>
